<?xml version="1.0" encoding="UTF-8" standalone="no"?>
<svg width="351px" height="36px" viewBox="0 0 351 36" version="1.1" xmlns="http://www.w3.org/2000/svg" xmlns:xlink="http://www.w3.org/1999/xlink" xmlns:sketch="http://www.bohemiancoding.com/sketch/ns">
    <!-- Generator: Sketch 3.4.2 (15857) - http://www.bohemiancoding.com/sketch -->
    <title>h1</title>
    <desc>Created with Sketch.</desc>
    <defs>
        <circle id="path-1" cx="18" cy="18" r="18"></circle>
    </defs>
    <g id="Page-1" stroke="none" stroke-width="1" fill="none" fill-rule="evenodd" sketch:type="MSPage">
        <g id="Artboard-1-Copy" sketch:type="MSArtboardGroup" transform="translate(-187.000000, -157.000000)">
            <g id="h1" sketch:type="MSLayerGroup" transform="translate(187.000000, 155.000000)">
                <path d="M0.184,11.308 L10.864,11.308 L10.864,13.468 L2.488,13.468 L2.488,18.796 L10.288,18.796 L10.288,20.956 L2.488,20.956 L2.488,28.3 L0.184,28.3 L0.184,11.308 Z M23.188,28.3 L21.028,28.3 L21.028,26.548 L20.98,26.548 C20.7079986,27.156003 20.2360033,27.6479981 19.564,28.024 C18.8919966,28.4000019 18.1160044,28.588 17.236,28.588 C16.6759972,28.588 16.1480025,28.5040008 15.652,28.336 C15.1559975,28.1679992 14.7200019,27.9080018 14.344,27.556 C13.9679981,27.2039982 13.6680011,26.7520028 13.444,26.2 C13.2199989,25.6479972 13.108,24.9960038 13.108,24.244 L13.108,16.924 L15.268,16.924 L15.268,23.644 C15.268,24.1720026 15.3399993,24.6239981 15.484,25 C15.6280007,25.3760019 15.8199988,25.6799988 16.06,25.912 C16.3000012,26.1440012 16.5759984,26.3119995 16.888,26.416 C17.2000015,26.5200005 17.5239983,26.572 17.86,26.572 C18.3080022,26.572 18.7239981,26.5000007 19.108,26.356 C19.4920019,26.2119993 19.8279985,25.9840016 20.116,25.672 C20.4040014,25.3599984 20.6279992,24.9640024 20.788,24.484 C20.9480008,24.0039976 21.028,23.4360033 21.028,22.78 L21.028,16.924 L23.188,16.924 L23.188,28.3 Z M26.32,10.156 L28.48,10.156 L28.48,28.3 L26.32,28.3 L26.32,10.156 Z M31.78,10.156 L33.94,10.156 L33.94,28.3 L31.78,28.3 L31.78,10.156 Z M42.184,23.5 L36.28,23.5 L36.28,21.484 L42.184,21.484 L42.184,23.5 Z M45.4119999,24.748 C45.828002,25.3720031 46.3599967,25.8319985 47.0079999,26.128 C47.6560032,26.4240015 48.3239965,26.572 49.0119999,26.572 C49.3960019,26.572 49.7879979,26.5120006 50.1879999,26.392 C50.5880019,26.2719994 50.9519983,26.0920012 51.2799999,25.852 C51.6080016,25.6119988 51.8759989,25.3160018 52.0839999,24.964 C52.292001,24.6119982 52.3959999,24.2040023 52.3959999,23.74 C52.3959999,23.0839967 52.188002,22.5840017 51.7719999,22.24 C51.3559979,21.8959983 50.840003,21.6080012 50.2239999,21.376 C49.6079969,21.1439988 48.9360036,20.9200011 48.2079999,20.704 C47.4799963,20.4879989 46.808003,20.1880019 46.1919999,19.804 C45.5759969,19.4199981 45.060002,18.9040032 44.6439999,18.256 C44.2279979,17.6079968 44.0199999,16.7320055 44.0199999,15.628 C44.0199999,15.1319975 44.1279989,14.6040028 44.3439999,14.044 C44.560001,13.4839972 44.8999976,12.9720023 45.3639999,12.508 C45.8280023,12.0439977 46.4239963,11.6560016 47.1519999,11.344 C47.8800036,11.0319984 48.7559948,10.876 49.7799999,10.876 C50.7080046,10.876 51.5959957,11.0039987 52.4439999,11.26 C53.2920042,11.5160013 54.0359967,12.0359961 54.6759999,12.82 L52.8039999,14.524 C52.5159985,14.0759978 52.1080026,13.7160014 51.5799999,13.444 C51.0519973,13.1719986 50.4520033,13.036 49.7799999,13.036 C49.1399967,13.036 48.6080021,13.1199992 48.1839999,13.288 C47.7599978,13.4560008 47.4200012,13.6719987 47.1639999,13.936 C46.9079987,14.2000013 46.7280005,14.4839985 46.6239999,14.788 C46.5199994,15.0920015 46.4679999,15.3719987 46.4679999,15.628 C46.4679999,16.3480036 46.6759979,16.8999981 47.0919999,17.284 C47.508002,17.6680019 48.0239969,17.9799988 48.6399999,18.22 C49.256003,18.4600012 49.9279963,18.675999 50.6559999,18.868 C51.3840036,19.060001 52.0559969,19.3279983 52.6719999,19.672 C53.288003,20.0160017 53.8039979,20.4799971 54.2199999,21.064 C54.636002,21.6480029 54.8439999,22.4519949 54.8439999,23.476 C54.8439999,24.2920041 54.6880015,25.0279967 54.3759999,25.684 C54.0639984,26.3400033 53.6440026,26.8919978 53.1159999,27.34 C52.5879973,27.7880022 51.9640035,28.1319988 51.2439999,28.372 C50.5239963,28.6120012 49.756004,28.732 48.9399999,28.732 C47.8519945,28.732 46.8200048,28.5400019 45.8439999,28.156 C44.8679951,27.7719981 44.0920028,27.180004 43.5159999,26.38 L45.4119999,24.748 Z M63.4959999,18.796 L60.3999999,18.796 L60.3999999,23.956 C60.3999999,24.2760016 60.4079998,24.5919984 60.4239999,24.904 C60.44,25.2160016 60.4999994,25.4959988 60.6039999,25.744 C60.7080004,25.9920012 60.8679988,26.1919992 61.0839999,26.344 C61.300001,26.4960008 61.6159978,26.572 62.0319999,26.572 C62.2880012,26.572 62.5519986,26.5480002 62.8239999,26.5 C63.0960013,26.4519998 63.3439988,26.3640006 63.5679999,26.236 L63.5679999,28.204 C63.3119986,28.3480007 62.980002,28.4479997 62.5719999,28.504 C62.1639979,28.5600003 61.848001,28.588 61.6239999,28.588 C60.7919958,28.588 60.1480022,28.4720012 59.6919999,28.24 C59.2359976,28.0079988 58.900001,27.7080018 58.6839999,27.34 C58.4679988,26.9719982 58.3400001,26.5600023 58.2999999,26.104 C58.2599997,25.6479977 58.2399999,25.1880023 58.2399999,24.724 L58.2399999,18.796 L55.7439999,18.796 L55.7439999,16.924 L58.2399999,16.924 L58.2399999,13.732 L60.3999999,13.732 L60.3999999,16.924 L63.4959999,16.924 L63.4959999,18.796 Z M66.0279999,18.316 C66.636003,17.7559972 67.3399959,17.3360014 68.1399999,17.056 C68.9400039,16.7759986 69.7399959,16.636 70.5399999,16.636 C71.3720041,16.636 72.0879969,16.739999 72.6879999,16.948 C73.2880029,17.156001 73.779998,17.4359982 74.1639999,17.788 C74.5480018,18.1400018 74.831999,18.5439977 75.0159999,19 C75.2000008,19.4560023 75.2919999,19.9319975 75.2919999,20.428 L75.2919999,26.236 C75.2919999,26.636002 75.2999998,27.0039983 75.3159999,27.34 C75.332,27.6760017 75.3559998,27.9959985 75.3879999,28.3 L73.4679999,28.3 C73.4199997,27.7239971 73.3959999,27.1480029 73.3959999,26.572 L73.3479999,26.572 C72.8679975,27.3080037 72.3000032,27.8279985 71.6439999,28.132 C70.9879966,28.4360015 70.2280042,28.588 69.3639999,28.588 C68.8359973,28.588 68.3320023,28.5160007 67.8519999,28.372 C67.3719975,28.2279993 66.9520017,28.0120014 66.5919999,27.724 C66.2319981,27.4359986 65.948001,27.0800021 65.7399999,26.656 C65.5319989,26.2319979 65.4279999,25.7400028 65.4279999,25.18 C65.4279999,24.4439963 65.5919983,23.8280025 65.9199999,23.332 C66.2480016,22.8359975 66.6959971,22.4320016 67.2639999,22.12 C67.8320028,21.8079984 68.4959961,21.5840007 69.2559999,21.448 C70.0160037,21.3119993 70.8279956,21.244 71.6919999,21.244 L73.2759999,21.244 L73.2759999,20.764 C73.2759999,20.4759986 73.2200005,20.1880014 73.1079999,19.9 C72.9959994,19.6119986 72.828001,19.3520012 72.6039999,19.12 C72.3799988,18.8879988 72.1000016,18.7040007 71.7639999,18.568 C71.4279982,18.4319993 71.0280022,18.364 70.5639999,18.364 C70.1479978,18.364 69.7840015,18.4039996 69.4719999,18.484 C69.1599984,18.5640004 68.8760012,18.6639994 68.6199999,18.784 C68.3639986,18.9040006 68.132001,19.0439992 67.9239999,19.204 C67.7159989,19.3640008 67.5160009,19.5159993 67.3239999,19.66 L66.0279999,18.316 Z M72.1239999,22.828 C71.6119974,22.828 71.0880026,22.8559997 70.5519999,22.912 C70.0159972,22.9680003 69.5280021,23.0759992 69.0879999,23.236 C68.6479977,23.3960008 68.2880013,23.6199986 68.0079999,23.908 C67.7279985,24.1960014 67.5879999,24.5639978 67.5879999,25.012 C67.5879999,25.6680033 67.8079977,26.1399986 68.2479999,26.428 C68.6880021,26.7160014 69.2839962,26.86 70.0359999,26.86 C70.6280029,26.86 71.1319978,26.760001 71.5479999,26.56 C71.964002,26.359999 72.2999986,26.1000016 72.5559999,25.78 C72.8120012,25.4599984 72.9959994,25.104002 73.1079999,24.712 C73.2200005,24.319998 73.2759999,23.9320019 73.2759999,23.548 L73.2759999,22.828 L72.1239999,22.828 Z M86.2719999,19.948 C85.8719979,19.5319979 85.4520021,19.2160011 85.0119999,19 C84.5719977,18.7839989 84.0480029,18.676 83.4399999,18.676 C82.8479969,18.676 82.3320021,18.7839989 81.8919999,19 C81.4519977,19.2160011 81.0840014,19.5119981 80.7879999,19.888 C80.4919984,20.2640019 80.2680007,20.6959976 80.1159999,21.184 C79.9639991,21.6720024 79.8879999,22.1799974 79.8879999,22.708 C79.8879999,23.2360026 79.975999,23.7359976 80.1519999,24.208 C80.3280008,24.6800024 80.5759983,25.0919982 80.8959999,25.444 C81.2160015,25.7960018 81.5999977,26.071999 82.0479999,26.272 C82.4960021,26.472001 82.9999971,26.572 83.5599999,26.572 C84.1680029,26.572 84.6879977,26.4640011 85.1199999,26.248 C85.5520021,26.0319989 85.9519981,25.7160021 86.3199999,25.3 L87.8559999,26.836 C87.2959971,27.4600031 86.6440036,27.9079986 85.8999999,28.18 C85.1559962,28.4520014 84.3680041,28.588 83.5359999,28.588 C82.6559955,28.588 81.8520035,28.4440014 81.1239999,28.156 C80.3959963,27.8679986 79.7680025,27.4640026 79.2399999,26.944 C78.7119973,26.4239974 78.3040013,25.8000036 78.0159999,25.072 C77.7279985,24.3439964 77.5839999,23.5400044 77.5839999,22.66 C77.5839999,21.7799956 77.7279985,20.9720037 78.0159999,20.236 C78.3040013,19.4999963 78.7079973,18.8680026 79.2279999,18.34 C79.7480025,17.8119974 80.3719963,17.4000015 81.0999999,17.104 C81.8280035,16.8079985 82.6399954,16.66 83.5359999,16.66 C84.3680041,16.66 85.1639961,16.8079985 85.9239999,17.104 C86.6840037,17.4000015 87.3439971,17.851997 87.9039999,18.46 L86.2719999,19.948 Z M89.4039999,10.156 L91.5639999,10.156 L91.5639999,21.868 L96.4599999,16.948 L99.4599999,16.948 L94.1559999,22.108 L99.9159999,28.3 L96.8439999,28.3 L91.5639999,22.396 L91.5639999,28.3 L89.4039999,28.3 L89.4039999,10.156 Z M108.1,11.308 L114.028,11.308 C115.228006,11.308 116.279995,11.4439986 117.184,11.716 C118.088004,11.9880014 118.871997,12.3519977 119.536,12.808 C120.200003,13.2640023 120.751998,13.787997 121.192,14.38 C121.632002,14.972003 121.979999,15.5799969 122.236,16.204 C122.492001,16.8280031 122.675999,17.4519969 122.788,18.076 C122.9,18.7000031 122.956,19.2759974 122.956,19.804 C122.956,20.8920054 122.756002,21.9439949 122.356,22.96 C121.955998,23.9760051 121.364004,24.879996 120.58,25.672 C119.795996,26.464004 118.824006,27.0999976 117.664,27.58 C116.503994,28.0600024 115.164007,28.3 113.644,28.3 L108.1,28.3 L108.1,11.308 Z M110.404,26.14 L113.308,26.14 C114.284005,26.14 115.207996,26.0080013 116.08,25.744 C116.952004,25.4799987 117.715997,25.0840026 118.372,24.556 C119.028003,24.0279974 119.547998,23.368004 119.932,22.576 C120.316002,21.783996 120.508,20.8600053 120.508,19.804 C120.508,19.2599973 120.420001,18.6240036 120.244,17.896 C120.067999,17.1679964 119.736002,16.4760033 119.248,15.82 C118.759997,15.1639967 118.084004,14.6080023 117.22,14.152 C116.355996,13.6959977 115.236007,13.468 113.86,13.468 L110.404,13.468 L110.404,26.14 Z M127.048,23.404 C127.048,23.9000025 127.155999,24.351998 127.372,24.76 C127.588001,25.168002 127.871998,25.5159986 128.224,25.804 C128.576002,26.0920014 128.983998,26.3159992 129.448,26.476 C129.912002,26.6360008 130.391997,26.716 130.888,26.716 C131.560003,26.716 132.143997,26.5600016 132.64,26.248 C133.136002,25.9359984 133.591998,25.5240026 134.008,25.012 L135.64,26.26 C134.439994,27.8120078 132.760011,28.588 130.6,28.588 C129.703995,28.588 128.892003,28.4360015 128.164,28.132 C127.435996,27.8279985 126.820002,27.4080027 126.316,26.872 C125.811997,26.3359973 125.424001,25.7040036 125.152,24.976 C124.879998,24.2479964 124.744,23.4600042 124.744,22.612 C124.744,21.7639958 124.891998,20.9760036 125.188,20.248 C125.484001,19.5199964 125.891997,18.8880027 126.412,18.352 C126.932002,17.8159973 127.551996,17.3960015 128.272,17.092 C128.992003,16.7879985 129.775996,16.636 130.624,16.636 C131.632005,16.636 132.483996,16.8119982 133.18,17.164 C133.876003,17.5160018 134.447998,17.9759972 134.896,18.544 C135.344002,19.1120028 135.667999,19.7519964 135.868,20.464 C136.068001,21.1760036 136.168,21.8999963 136.168,22.636 L136.168,23.404 L127.048,23.404 Z M133.864,21.676 C133.848,21.1959976 133.772001,20.756002 133.636,20.356 C133.499999,19.955998 133.296001,19.6080015 133.024,19.312 C132.751998,19.0159985 132.412002,18.7840008 132.004,18.616 C131.595998,18.4479992 131.120003,18.364 130.576,18.364 C130.047997,18.364 129.564002,18.463999 129.124,18.664 C128.683998,18.864001 128.312001,19.1239984 128.008,19.444 C127.703998,19.7640016 127.468001,20.119998 127.3,20.512 C127.131999,20.904002 127.048,21.2919981 127.048,21.676 L133.864,21.676 Z M144.508,19.78 C144.251999,19.4599984 143.936002,19.1920011 143.56,18.976 C143.183998,18.7599989 142.724003,18.652 142.18,18.652 C141.667997,18.652 141.224002,18.7599989 140.848,18.976 C140.471998,19.1920011 140.284,19.5079979 140.284,19.924 C140.284,20.2600017 140.391999,20.531999 140.608,20.74 C140.824001,20.948001 141.079998,21.1159994 141.376,21.244 C141.672001,21.3720006 141.987998,21.4679997 142.324,21.532 C142.660002,21.5960003 142.947999,21.6519998 143.188,21.7 C143.652002,21.8120006 144.087998,21.9479992 144.496,22.108 C144.904002,22.2680008 145.255998,22.4759987 145.552,22.732 C145.848001,22.9880013 146.079999,23.2999982 146.248,23.668 C146.416001,24.0360018 146.5,24.4839974 146.5,25.012 C146.5,25.6520032 146.364001,26.1999977 146.092,26.656 C145.819998,27.1120023 145.468002,27.4839986 145.036,27.772 C144.603998,28.0600014 144.112003,28.2679994 143.56,28.396 C143.007997,28.5240006 142.452003,28.588 141.892,28.588 C140.947995,28.588 140.120003,28.4440014 139.408,28.156 C138.695996,27.8679986 138.060003,27.3400038 137.5,26.572 L139.132,25.228 C139.484002,25.5800018 139.875998,25.8919986 140.308,26.164 C140.740002,26.4360014 141.267997,26.572 141.892,26.572 C142.164001,26.572 142.439998,26.5440003 142.72,26.488 C143.000001,26.4319997 143.247999,26.3440006 143.464,26.224 C143.680001,26.1039994 143.855999,25.9520009 143.992,25.768 C144.128001,25.5839991 144.196,25.3720012 144.196,25.132 C144.196,24.8119984 144.096001,24.548001 143.896,24.34 C143.695999,24.131999 143.456001,23.9680006 143.176,23.848 C142.895998,23.7279994 142.600001,23.6320004 142.288,23.56 C141.975998,23.4879996 141.700001,23.4280002 141.46,23.38 C140.995998,23.2679994 140.556002,23.1400007 140.14,22.996 C139.723998,22.8519993 139.356001,22.6600012 139.036,22.42 C138.715998,22.1799988 138.460001,21.8760018 138.268,21.508 C138.075999,21.1399982 137.98,20.6840027 137.98,20.14 C137.98,19.547997 138.103999,19.0320022 138.352,18.592 C138.600001,18.1519978 138.927998,17.7880014 139.336,17.5 C139.744002,17.2119986 140.207997,16.9960007 140.728,16.852 C141.248002,16.7079993 141.771997,16.636 142.3,16.636 C143.068004,16.636 143.803996,16.7799986 144.508,17.068 C145.212003,17.3560014 145.771998,17.8359966 146.188,18.508 L144.508,19.78 Z M148.984,16.924 L151.144,16.924 L151.144,28.3 L148.984,28.3 L148.984,16.924 Z M148.48,12.844 C148.48,12.4119978 148.635998,12.0400016 148.948,11.728 C149.260001,11.4159984 149.631998,11.26 150.064,11.26 C150.496002,11.26 150.867998,11.4159984 151.18,11.728 C151.492001,12.0400016 151.648,12.4119978 151.648,12.844 C151.648,13.2760022 151.492001,13.6479984 151.18,13.96 C150.867998,14.2720016 150.496002,14.428 150.064,14.428 C149.631998,14.428 149.260001,14.2720016 148.948,13.96 C148.635998,13.6479984 148.48,13.2760022 148.48,12.844 L148.48,12.844 Z M165.676,28.204 C165.676,29.0680043 165.528001,29.8559964 165.232,30.568 C164.935998,31.2800036 164.516003,31.8959974 163.972,32.416 C163.427997,32.9360026 162.772004,33.3399986 162.004,33.628 C161.235996,33.9160014 160.388004,34.06 159.46,34.06 C158.371994,34.06 157.376004,33.9080015 156.472,33.604 C155.567995,33.2999985 154.708004,32.7720038 153.892,32.02 L155.356,30.196 C155.916003,30.804003 156.523997,31.2639984 157.18,31.576 C157.836003,31.8880016 158.579996,32.044 159.412,32.044 C160.212004,32.044 160.875997,31.9280012 161.404,31.696 C161.932002,31.4639988 162.351998,31.1640018 162.664,30.796 C162.976001,30.4279982 163.195999,30.0080024 163.324,29.536 C163.452,29.0639976 163.516,28.5880024 163.516,28.108 L163.516,26.428 L163.444,26.428 C163.027998,27.1160034 162.464003,27.6239984 161.752,27.952 C161.039996,28.2800016 160.292004,28.444 159.508,28.444 C158.675996,28.444 157.904003,28.2960015 157.192,28 C156.479996,27.7039985 155.868002,27.2960026 155.356,26.776 C154.843997,26.2559974 154.444001,25.6400036 154.156,24.928 C153.867998,24.2159964 153.724,23.4440042 153.724,22.612 C153.724,21.7799958 153.859998,21.0000036 154.132,20.272 C154.404001,19.5439964 154.791997,18.9080027 155.296,18.364 C155.800002,17.8199973 156.407996,17.3960015 157.12,17.092 C157.832003,16.7879985 158.627995,16.636 159.508,16.636 C160.276004,16.636 161.023996,16.8039983 161.752,17.14 C162.480003,17.4760017 163.051998,17.947997 163.468,18.556 L163.516,18.556 L163.516,16.924 L165.676,16.924 L165.676,28.204 Z M159.772,18.652 C159.195997,18.652 158.676002,18.751999 158.212,18.952 C157.747998,19.152001 157.356001,19.4239983 157.036,19.768 C156.715998,20.1120017 156.468001,20.5279976 156.292,21.016 C156.115999,21.5040024 156.028,22.0359971 156.028,22.612 C156.028,23.7640058 156.363996,24.6879965 157.036,25.384 C157.708003,26.0800035 158.619994,26.428 159.772,26.428 C160.924006,26.428 161.835996,26.0800035 162.508,25.384 C163.180003,24.6879965 163.516,23.7640058 163.516,22.612 C163.516,22.0359971 163.428001,21.5040024 163.252,21.016 C163.075999,20.5279976 162.828001,20.1120017 162.508,19.768 C162.187998,19.4239983 161.796002,19.152001 161.332,18.952 C160.867998,18.751999 160.348003,18.652 159.772,18.652 L159.772,18.652 Z M168.64,16.924 L170.8,16.924 L170.8,18.676 L170.848,18.676 C171.120001,18.067997 171.591996,17.5760019 172.264,17.2 C172.936003,16.8239981 173.711995,16.636 174.592,16.636 C175.136003,16.636 175.659997,16.7199992 176.164,16.888 C176.668002,17.0560008 177.107998,17.3159982 177.484,17.668 C177.860002,18.0200018 178.159999,18.4719972 178.384,19.024 C178.608001,19.5760028 178.72,20.2279962 178.72,20.98 L178.72,28.3 L176.56,28.3 L176.56,21.58 C176.56,21.0519974 176.488001,20.6000019 176.344,20.224 C176.199999,19.8479981 176.008001,19.5440012 175.768,19.312 C175.527999,19.0799988 175.252001,18.9120005 174.94,18.808 C174.627998,18.7039995 174.304001,18.652 173.968,18.652 C173.519998,18.652 173.104002,18.7239993 172.72,18.868 C172.335998,19.0120007 172.000001,19.2399984 171.712,19.552 C171.423998,19.8640016 171.200001,20.2599976 171.04,20.74 C170.879999,21.2200024 170.8,21.7879967 170.8,22.444 L170.8,28.3 L168.64,28.3 L168.64,16.924 Z M183.316,23.404 C183.316,23.9000025 183.423999,24.351998 183.64,24.76 C183.856001,25.168002 184.139998,25.5159986 184.492,25.804 C184.844002,26.0920014 185.251997,26.3159992 185.716,26.476 C186.180002,26.6360008 186.659997,26.716 187.156,26.716 C187.828003,26.716 188.411997,26.5600016 188.908,26.248 C189.404002,25.9359984 189.859998,25.5240026 190.276,25.012 L191.908,26.26 C190.707994,27.8120078 189.028011,28.588 186.868,28.588 C185.971995,28.588 185.160003,28.4360015 184.432,28.132 C183.703996,27.8279985 183.088002,27.4080027 182.584,26.872 C182.079997,26.3359973 181.692001,25.7040036 181.42,24.976 C181.147998,24.2479964 181.012,23.4600042 181.012,22.612 C181.012,21.7639958 181.159998,20.9760036 181.456,20.248 C181.752001,19.5199964 182.159997,18.8880027 182.68,18.352 C183.200002,17.8159973 183.819996,17.3960015 184.54,17.092 C185.260003,16.7879985 186.043996,16.636 186.892,16.636 C187.900005,16.636 188.751996,16.8119982 189.448,17.164 C190.144003,17.5160018 190.715998,17.9759972 191.164,18.544 C191.612002,19.1120028 191.935999,19.7519964 192.136,20.464 C192.336001,21.1760036 192.436,21.8999963 192.436,22.636 L192.436,23.404 L183.316,23.404 Z M190.132,21.676 C190.116,21.1959976 190.04,20.756002 189.904,20.356 C189.767999,19.955998 189.564001,19.6080015 189.292,19.312 C189.019998,19.0159985 188.680002,18.7840008 188.272,18.616 C187.863998,18.4479992 187.388003,18.364 186.844,18.364 C186.315997,18.364 185.832002,18.463999 185.392,18.664 C184.951998,18.864001 184.580001,19.1239984 184.276,19.444 C183.971998,19.7640016 183.736001,20.119998 183.568,20.512 C183.399999,20.904002 183.316,21.2919981 183.316,21.676 L190.132,21.676 Z M194.728,16.924 L196.888,16.924 L196.888,18.676 L196.936,18.676 C197.080001,18.3719985 197.271999,18.0960012 197.512,17.848 C197.752001,17.5999988 198.019998,17.3880009 198.316,17.212 C198.612001,17.0359991 198.935998,16.8960005 199.288,16.792 C199.640002,16.6879995 199.991998,16.636 200.344,16.636 C200.696002,16.636 201.015998,16.6839995 201.304,16.78 L201.208,19.108 C201.031999,19.0599998 200.856001,19.0200002 200.68,18.988 C200.503999,18.9559998 200.328001,18.94 200.152,18.94 C199.095995,18.94 198.288003,19.235997 197.728,19.828 C197.167997,20.420003 196.888,21.3399938 196.888,22.588 L196.888,28.3 L194.728,28.3 L194.728,16.924 Z" id="Full-Stack-Designer" fill="#DFDFDF" sketch:type="MSShapeGroup"></path>
                <g id="Rectangle-97-+-实践沙龙" transform="translate(257.000000, 12.000000)" sketch:type="MSShapeGroup">
                    <path d="M3.03553391,11.5355339 L3.03553391,17 L52,17 L52,0 L3.03553391,0 L3.03553391,5.46446609 L2.84217094e-14,8.5 L3.03553391,11.5355339 Z" id="Rectangle-97" fill="#FFFFFF"></path>
                    <path d="M12.05,11.4 C13.39,11.92 14.69,12.6 15.97,13.46 L16.36,12.84 C15.18,12.08 13.87,11.43 12.45,10.87 C12.54,10.73 12.63,10.58 12.72,10.42 L16.23,10.42 L16.23,9.74 L13.02,9.74 C13.24,9.12 13.36,8.41 13.39,7.62 L13.39,6.44 L12.69,6.44 L12.69,7.62 C12.66,8.41 12.52,9.12 12.26,9.74 L7.78,9.74 L7.78,10.42 L11.91,10.42 C11.81,10.58 11.71,10.73 11.59,10.87 C10.85,11.67 9.55,12.32 7.69,12.8 L8.09,13.41 C9.92,12.93 11.24,12.26 12.05,11.4 L12.05,11.4 Z M9.11,7.81 L8.75,8.35 C9.43,8.62 10.1,9 10.74,9.48 L11.11,8.91 C10.51,8.49 9.84,8.12 9.11,7.81 L9.11,7.81 Z M10.01,6.38 L9.64,6.92 C10.34,7.2 11.03,7.59 11.7,8.09 L12.07,7.52 C11.45,7.07 10.76,6.69 10.01,6.38 L10.01,6.38 Z M16.06,5.21 L12.44,5.21 C12.31,4.82 12.18,4.47 12.05,4.17 L11.31,4.29 C11.46,4.57 11.6,4.87 11.72,5.21 L7.92,5.21 L7.92,7.13 L8.62,7.13 L8.62,5.88 L15.36,5.88 L15.36,7.13 L16.06,7.13 L16.06,5.21 Z M17.92,4.64 L17.92,7.76 L19.28,7.76 L19.28,12.11 C19.02,12.17 18.76,12.24 18.48,12.3 L18.48,8.82 L17.84,8.82 L17.84,12.44 C17.68,12.47 17.51,12.5 17.34,12.54 L17.55,13.23 C18.93,12.94 20.13,12.62 21.16,12.28 L21.16,11.56 C20.78,11.68 20.38,11.8 19.96,11.92 L19.96,10.06 L21.05,10.06 L21.05,9.39 L19.96,9.39 L19.96,7.76 L20.89,7.76 L20.89,4.64 L17.92,4.64 Z M20.22,7.11 L18.6,7.11 L18.6,5.3 L20.22,5.3 L20.22,7.11 Z M25.82,5.99 L23.54,6.3 L23.54,4.23 L22.81,4.23 L22.81,6.4 L21.34,6.59 L21.44,7.24 L22.82,7.06 C22.83,7.55 22.86,8.02 22.91,8.47 L21.3,8.73 L21.4,9.39 L22.99,9.13 C23.03,9.43 23.09,9.72 23.15,10 C23.26,10.48 23.4,10.92 23.56,11.32 C22.85,11.84 22.03,12.24 21.11,12.52 L21.53,13.09 C22.36,12.85 23.14,12.46 23.86,11.94 C23.95,12.1 24.05,12.25 24.15,12.39 C24.58,12.97 25.04,13.27 25.52,13.29 C26.01,13.29 26.38,12.67 26.64,11.44 L26.03,11.03 C25.87,12.05 25.67,12.57 25.44,12.57 C25.18,12.57 24.88,12.32 24.56,11.84 C24.5,11.74 24.44,11.64 24.39,11.53 C24.98,11.02 25.53,10.41 26.04,9.69 L25.48,9.32 C25.08,9.9 24.62,10.42 24.12,10.88 C23.99,10.52 23.88,10.11 23.79,9.65 C23.75,9.45 23.72,9.24 23.7,9.02 L26.29,8.61 L26.18,7.95 L23.63,8.36 C23.59,7.92 23.56,7.46 23.55,6.96 L25.92,6.65 L25.82,5.99 Z M24.61,4.19 L24.06,4.54 C24.55,5.02 24.94,5.46 25.22,5.86 L25.76,5.48 C25.49,5.12 25.11,4.69 24.61,4.19 L24.61,4.19 Z M35.44,8.71 C34.58,10.8 32.84,12.15 30.2,12.76 L30.59,13.4 C33.31,12.75 35.13,11.31 36.06,9.08 L35.44,8.71 Z M34.99,5.21 L34.38,5.5 C34.96,6.37 35.51,7.35 36.01,8.45 L36.64,8.13 C36.12,7.07 35.57,6.1 34.99,5.21 L34.99,5.21 Z M31.5,5.45 C31.18,6.96 30.69,8.23 30.02,9.25 L30.55,9.75 C31.25,8.79 31.79,7.42 32.17,5.63 L31.5,5.45 Z M32.97,4.25 L32.97,10.25 L33.71,10.25 L33.71,4.25 L32.97,4.25 Z M28.18,4.43 L27.67,4.93 C28.41,5.47 29,5.97 29.43,6.44 L29.95,5.93 C29.47,5.43 28.88,4.93 28.18,4.43 L28.18,4.43 Z M28,6.89 L27.49,7.39 C28.19,7.89 28.74,8.37 29.13,8.83 L29.64,8.31 C29.2,7.83 28.65,7.36 28,6.89 L28,6.89 Z M29.1,9.58 C28.68,10.77 28.17,11.93 27.59,13.06 L28.31,13.37 C28.85,12.27 29.33,11.09 29.75,9.84 L29.1,9.58 Z M45.24,13.25 C45.59,13.25 45.85,13.15 46.01,12.95 C46.19,12.72 46.32,12.07 46.39,11 L45.71,10.78 C45.67,11.66 45.61,12.19 45.51,12.37 C45.43,12.51 45.29,12.59 45.11,12.59 L43.41,12.59 C43.17,12.59 43.06,12.44 43.06,12.15 L43.06,11.39 C44.11,10.59 44.98,9.54 45.66,8.24 L45.02,7.91 C44.5,8.92 43.84,9.77 43.06,10.46 L43.06,7.11 L46.44,7.11 L46.44,6.41 L41.16,6.41 C41.21,5.73 41.24,5 41.24,4.22 L40.53,4.22 C40.53,5 40.5,5.73 40.44,6.41 L37.63,6.41 L37.63,7.11 L40.37,7.11 C40.29,7.82 40.17,8.47 40.03,9.05 C39.6,10.55 38.73,11.79 37.42,12.79 L37.89,13.36 C39.39,12.25 40.34,10.83 40.76,9.09 C40.9,8.49 41.02,7.83 41.1,7.11 L42.35,7.11 L42.35,11.02 C41.72,11.46 41.01,11.81 40.23,12.08 L40.64,12.69 C41.24,12.47 41.81,12.2 42.35,11.87 L42.35,12.31 C42.35,12.93 42.63,13.25 43.2,13.25 L45.24,13.25 Z M43.43,4.21 L42.95,4.67 C43.74,5.18 44.36,5.66 44.82,6.11 L45.31,5.61 C44.8,5.15 44.17,4.68 43.43,4.21 L43.43,4.21 Z" id="实践沙龙" fill="#121419"></path>
                </g>
                <g id="Group-2" transform="translate(236.964466, 20.000000) rotate(-6.000000) translate(-236.964466, -20.000000) translate(218.964466, 2.000000)">
                    <mask id="mask-2" sketch:name="Mask" fill="white">
                        <use xlink:href="#path-1"></use>
                    </mask>
                    <use id="Mask" fill="#FFFFFF" sketch:type="MSShapeGroup" xlink:href="#path-1"></use>
                    <g id="Group" mask="url(#mask-2)" fill="#13161A" sketch:type="MSShapeGroup">
                        <g transform="translate(23.000000, 30.942895) scale(-1, -1) rotate(-164.000000) translate(-23.000000, -30.942895) translate(-1.000000, 1.442895)">
                            <path d="M5.77641483,2.40391581 C6.84210433,1.66997754 9.0011949,0.965761147 9.15109981,0.904219307 C9.30100472,0.842677467 9.4713538,0.910018116 9.50632965,0.904219307 C9.54130549,0.898420498 9.33510048,0.869657418 9.50632965,0.845324089 C9.67755881,0.820990759 9.88477621,0.850438368 9.92076445,0.845324089 C9.95675269,0.840209809 9.72073142,0.811302181 9.92076445,0.786428871 C10.1207975,0.761555561 10.3576174,0.79100317 10.3944042,0.786428871 C10.4311911,0.781854572 9.7232792,0.894437096 10.3944042,0.727533653 C11.0655293,0.560630209 11.6152199,0.465163495 11.8153236,0.433057563 C12.0154273,0.400951631 12.1937701,0.438171842 12.2297584,0.433057563 C12.2657466,0.427943283 11.0281387,0.516463887 12.2297584,0.374162345 C13.4313781,0.231860802 14.1871414,0.173678606 14.7163672,0.138581473 C15.2455931,0.103484339 15.7417954,0.140806511 15.7820567,0.138581473 C15.8223181,0.136356434 15.4363487,0.106140045 15.7820567,0.0796862545 C16.1277647,0.0532324643 16.226094,0.0796862545 16.5517214,0.0796862545 C16.8773487,0.0796862545 16.8736737,-0.0996078185 17.5249302,0.079686255 C18.1761867,0.258980328 19.8112334,1.32088849 20.5184531,1.46159241 C20.9138593,1.54025991 21.6627587,1.06102816 21.6627587,1.06102816 C21.6627587,1.06102816 21.5462691,2.03170691 21.8209625,2.16833503 C22.0659655,2.29019564 22.345624,2.28205528 22.5906271,2.4039159 C23.1504466,2.68236117 23.4242015,3.46636988 24.0115464,3.75850591 C24.1986442,4.02780727 25.3015475,4.40692344 25.3717771,4.47678557 C25.9336791,5.03574783 27.3270245,7.46890501 27.3270245,9.11797112 C27.3270245,10.7670372 27.464956,12.927379 27.3270249,13.4762169 C27.1301023,14.259786 26.3807231,14.8019746 26.0746247,13.8884838 C26.6047701,11.97652 25.1498542,10.9437229 25.1498542,10.9437229 C25.1498542,10.9437229 24.5257345,11.8304323 24.0115461,11.8304322 C23.4973576,11.8304322 23.629213,12.377898 23.3155805,12.5338938 C22.593892,12.8928501 22.1801644,12.4670951 21.8209621,13.1817412 C21.6877221,13.446827 21.5763296,15.2430729 20.8872118,15.8909203 C20.8872118,14.7130168 20.5184527,14.7130168 20.5184527,14.7130168 L20.2816332,13.9473786 C20.1275346,12.9171294 20.0342034,11.83888 19.1107573,11.5326751 L18.4228771,11.0986634 C18.4228771,11.0986634 17.8195168,11.5326751 17.2029754,11.6504655 C17.5815478,11.0986634 18.2442347,10.7633194 18.1502542,10.2958751 C18.0191776,9.64392097 17.0472342,9.46107782 16.5517196,8.88466298 C16.0562049,8.30824814 15.9094428,7.58669545 15.9094428,7.58669545 C15.9094428,7.58669545 15.2679107,7.3557648 15.2492105,7.35111421 C14.8526071,7.30218872 14.6415907,7.47664897 14.4203409,7.58669508 C13.8171257,7.64984526 13.7598255,7.93679263 13.532266,7.82360815 C13.6123044,7.19632909 13.9725596,6.69683585 13.7098809,6.76216195 C13.3101891,6.77636725 12.8800403,7.1136009 12.7626017,6.87995247 C12.8820942,5.93901451 12.3481665,6.60116122 12.1113466,5.59829571 C11.4867766,5.58603219 11.0324643,6.1383211 10.5720177,6.29100029 L10.2167879,6.29100029 L10.2167879,6.3498955 C8.76977247,6.44878903 8.25001226,8.23042792 7.10040809,9.28194239 C5.95080392,10.3334569 5.18969773,10.4686696 4.74370446,11.3559894 C4.53256715,11.7760547 3.76274349,12.059238 3.88185584,12.6516838 C4.50254885,12.627796 4.69531922,12.2248941 5.18436523,12.0627317 C5.91316557,11.9607132 5.92700367,12.3286144 6.36846468,12.4749982 C8.26396337,12.1940783 8.68852666,10.6759415 10.4536078,10.2369799 L10.9864525,10.2369799 L10.8740552,10.0642749 C11.3542586,10.0821128 11.7452975,9.97464218 12.111347,9.88360859 L12.5849868,9.88360859 L12.4725895,9.71090355 C12.955896,9.68953245 13.1950337,9.89727264 13.4138564,9.82471337 C14.1277301,9.93355728 13.9764671,9.76394615 14.3373437,9.883609 C14.4784281,9.93039107 15.81433,11.1667604 15.9094422,11.3559894 C16.1964909,11.8761179 15.5041088,11.7403086 15.399746,11.5326751 C14.7050944,11.4839367 14.5897235,12.1641435 14.7755708,12.5338934 C14.715024,13.9217418 14.06718,14.7008258 12.8218067,14.9485973 C12.6676713,14.9792631 12.4720648,15.4464771 12.2889619,15.5375495 C10.8567548,15.8554598 11.1943657,15.1348681 11.7561172,14.9485973 C12.3202059,14.9647291 12.6465699,15.0592906 12.7626017,14.7130165 C12.740433,14.3815032 12.809967,14.2771912 12.9994216,14.1829595 C13.3668498,14.1957952 13.5946978,14.1176451 13.7098813,13.8884834 C13.7644313,13.5209474 13.6060867,13.4609385 13.5322663,13.240636 C13.3246836,13.2080841 12.3562791,13.5536587 12.3481669,13.5940073 C12.2595994,14.034528 12.1953994,14.0955627 11.7561172,14.1829595 L11.2232724,14.1829595 L11.2232724,14.2418547 C9.85490917,14.465844 9.4086147,13.4821584 9.27985726,13.2406364 C9.15109981,12.9991144 9.25682592,12.5886035 9.21030336,12.3572077 C8.78964166,12.3007684 8.60956078,12.5382171 8.38143374,12.6516838 C8.23516709,12.7244345 8.00807428,12.7827182 7.96699894,12.9461599 C7.84568687,13.4288694 9.73343019,15.4165367 10.0983779,15.5375495 L10.4536078,15.5375495 L10.4536078,15.5964447 C11.5321179,15.5866791 10.663903,16.135297 10.3351978,16.2442921 C9.02097247,16.5836454 8.14856605,14.3007499 7.37494921,14.3007499 C7.44389283,15.1347225 7.0309394,15.3862751 6.84210446,15.949816 C6.84053251,16.7169623 6.59455692,17.1705411 6.01323485,17.3633013 C5.83314586,17.4230169 5.67421311,17.7969538 5.4803901,17.8933582 C3.85552353,17.8846264 5.81085902,17.0495602 5.95402988,16.479873 C6.01529718,16.2360859 5.91734484,15.9914985 5.77641496,15.8909208 C5.07888524,15.8693327 4.50498132,16.744413 4.05947076,16.8921395 C3.62252236,16.8390891 3.62218454,16.9396688 3.40821606,16.8332443 C3.11260712,16.6862131 2.79306613,16.3268901 2.46093651,16.2442921 C2.16083326,16.1696588 1.5913134,16.6527283 1.69127186,16.9510347 C1.71000627,17.0069439 1.8335792,17.6178741 2.69775647,18.0270654 C2.77917522,18.0656175 3.2137518,18.1626155 3.28980612,18.1878343 C3.46802402,18.2469295 3.88685642,17.8773908 4.05947076,17.834463 C4.43158443,17.8246766 4.77965678,17.8740073 4.59231551,18.2467295 C4.37391578,18.6812437 3.59129504,18.1262214 3.34901109,18.2467295 C3.240806,18.300549 3.11127625,18.4827655 2.99378126,18.5412056 C1.87137828,18.5083617 1.24498887,17.6533095 0.862402252,16.8921395 C0.813367853,15.6905167 -1.05324928,15.6658313 0.862402234,14.7130168 C1.06821964,14.6106465 1.25383313,14.4005349 1.45445194,14.3007503 L1.51365695,13.5351121 L1.45445198,13.1817408 L1.395247,10.9437225 C1.46844303,10.1766875 1.79073507,9.70457054 1.98729673,9.11797075 C2.14688063,8.22464715 2.33439642,7.48507986 2.69775639,6.76216203 C3.40345135,4.76462593 4.71072532,3.13785408 5.77641483,2.40391581 Z M4.52233452,13.6958367 C4.06981318,13.7900016 3.03996888,14.1210406 3.2151521,14.8127607 C3.33227765,15.0934106 3.17119262,15.6692327 3.32916632,15.7082182 C3.81715445,15.8286461 4.10435407,14.967 4.41685215,14.8127607 C4.683633,14.6810859 5.82551893,14.4914353 5.91154046,14.2112554 C6.01046328,13.8890547 5.78066109,13.7409716 5.29945187,13.6958367 C5.29945187,13.6958367 4.97485587,13.6016718 4.52233452,13.6958367 Z M13.65609,11.880425 C13.6698896,11.3322299 13.4220031,11.0708653 13.0620958,10.8953087 C12.3776738,10.5049551 9.35692455,12.0498971 10.8643173,12.3440092 L11.7553086,12.3440092 L11.7553086,12.2860612 L12.2305039,12.2860612 L12.2305039,12.2281131 C12.7655325,12.229142 13.9175874,12.6457485 13.65609,11.880425 L13.65609,11.880425 L13.65609,11.880425 Z M2.03678569,14.9639622 C1.09476588,14.9884582 2.31646203,15.8584946 2.03678569,14.9639622 L2.03678569,14.9639622 L2.03678569,14.9639622 Z" id="Shape" stroke="none"></path>
                            <path d="M25.0972091,21.0858161 C25.1330409,20.1502646 24.6731743,19.6357033 24.4506759,18.9674333 C24.3083554,17.7078976 25.2657234,17.9238858 25.6261908,17.2021143 C25.6941334,17.0660714 25.9843835,16.1540122 26.2139482,16.6136746 C26.3730104,17.4437659 26.0731086,17.6839676 25.9200695,18.1436177 C25.841011,18.5610058 25.9856717,18.7662291 26.037621,19.0262772 C26.1322547,19.6098716 26.0034616,19.8651836 26.0963967,20.1443126 C26.0963967,20.3404592 26.2934186,20.4054287 26.2934186,20.4054287 C26.2934186,20.4054287 26.210214,20.9744331 26.2298059,20.9744331 C26.2298059,20.9770667 26.4109701,21.1115563 26.4109701,21.1115563 L26.3473574,22.2690003 L26.5285215,22.4649675 C26.5285215,22.4649675 26.3902755,23.4591894 26.3902755,23.7926385 C26.4098674,23.7926385 26.4649089,23.6812555 26.4649089,23.6812555 C26.4649089,23.6812555 26.4838091,24.3250145 26.1710302,24.2936601 C25.8582514,24.2623056 25.6261908,23.3022722 25.6261908,23.1453549 L25.567415,23.1453549 L25.567415,22.7334471 L25.5086393,22.7334471 C25.5551313,22.2777062 25.4047368,21.9958053 25.2735363,21.7330997 C25.2437911,21.531099 25.1326058,21.263005 25.0972091,21.0858161 Z" id="Shape" stroke="none"></path>
                            <path d="M23.3728821,33.7643714 C22.9781247,34.1567219 22.0679958,34.8291009 21.8343707,35.2935022 C21.4501791,36.0572004 18.60003,39.6650103 17.9289187,39.99852 C17.2643359,40.3287854 15.260155,42.0589384 14.9110693,42.1745908 C14.56884,42.2879717 14.5791231,41.7528523 14.6152018,41.6452763 L14.6152018,41.0571491 C14.6987755,40.7551705 14.3537157,40.5429442 14.4376812,40.2925837 C14.4826381,40.1585353 14.8984692,40.141192 14.9702429,39.99852 C15.2043153,39.5332295 15.5174675,39.1902339 15.680325,38.7046401 C15.7507731,38.4945846 15.4854696,38.047596 15.443631,37.881262 C15.2843317,37.24795 15.2382235,36.6218569 15.0294164,35.9992549 C14.9332682,35.7125692 14.0626736,34.9009362 13.845946,34.4701241 C13.853345,33.1821955 14.8915056,34.4312351 14.3193342,33.2938696 L13.9642931,33.2938696 C13.3549423,33.3327203 12.7306478,33.1532061 12.6033022,32.6469297 C12.8192573,32.1573521 11.9793797,31.481014 11.8340465,32.0588024 L11.8340465,32.4116788 C11.774873,32.5293042 11.774873,32.6469297 11.774873,32.7645551 C11.7156995,32.8821805 11.6962433,33.0014064 11.7156995,33.1174314 C11.73035,33.2047985 14.0757429,35.73117 14.2601607,35.8228167 C14.2601607,36.1364846 14.0826401,37.8812621 14.6152018,38.8810784 C14.5560282,38.685036 14.0826401,38.4331127 14.0826401,38.2370703 C14.0234666,38.3939042 14.2009871,38.7242444 14.2009871,38.8810783 C14.1418136,39.018308 14.1418136,39.1555377 14.1418136,39.2927674 C13.8736798,39.4115046 14.1770358,40.0223254 14.0826401,40.1161455 C14.0026512,40.1956467 13.8391044,40.1297453 13.7867725,40.2337709 C13.6135988,40.5780066 13.5723644,41.034999 13.3133844,41.2923999 C13.2436477,41.3617114 13.4467996,41.439978 13.490905,41.5276508 C13.5007108,41.5471429 13.4367712,41.8066874 13.4317314,41.8217145 C13.3451365,42.0799154 12.8900692,42.1338683 12.7808228,42.351029 C12.5757067,42.7587598 12.1151142,43.2332458 12.0115671,43.6449089 C11.5061664,45.6541853 10.9195488,47.5158471 10.4138821,49.5261812 C10.309409,49.9415258 7.39268738,56.2374817 6.98181818,57.0542097 L10.4138821,57.0542098 C10.4138821,56.7013335 10.394188,56.3479138 10.4138821,55.9955807 C10.4379992,55.5641192 10.9461168,54.9382514 11.0647908,54.4664499 C11.60323,52.325825 12.3601517,50.6104785 12.8991698,48.4675522 C13.0067092,48.0400175 13.3742719,47.6373601 13.490905,47.1736723 C13.5442061,46.7396188 13.3839776,46.6216578 13.490905,46.4091069 C13.6372993,46.1181034 15.1115148,45.3042156 15.443631,45.13917 C16.0648018,45.041677 15.7267011,45.5998482 15.680325,45.8303146 C15.557786,46.8192422 16.0703007,46.8767782 16.2128867,47.5853613 L16.2128867,47.9970504 C16.2720602,48.4871564 16.2720602,49.7013146 16.2720602,49.7013146 L16.2720602,51.4688229 L16.7674407,52.7543999 C16.7674407,52.7543999 16.4495808,53.3882167 16.4495808,53.6430718 C16.3904072,53.7803015 16.3312337,54.3684287 16.3312337,54.5252626 C16.3115092,54.5252626 16.2720602,57.0542097 16.2720602,57.0542097 C37.9887406,52.2903793 43.6860884,61.8167843 46.1546858,56.9096926 C46.2492111,56.7217947 47.0451735,56.0930659 47.1014621,55.936768 C47.6853816,54.3153834 47.4565032,49.3693473 47.4565032,48.9968667 C47.5789504,48.6847538 47.4432123,48.532338 47.3973297,48.3499267 C47.4537892,49.6753984 46.7771679,48.1498475 46.6872475,47.7029868 C46.5722857,47.0356449 46.8121003,46.749051 46.9831151,46.4091069 C47.0367715,46.3024483 46.9530408,46.171918 46.9239415,46.0562305 C46.8423262,45.7317597 46.6252091,44.2880523 46.4505534,44.0565979 C46.3627218,43.9402032 46.2010508,44.064489 46.1546858,43.8801598 C46.0774304,43.573022 46.1926419,43.6554529 46.3322064,43.5860962 C46.4272122,43.5388829 46.2346908,43.3955545 46.2138594,43.2920325 C46.1226009,42.8385224 46.253679,43.1562764 46.1546858,42.762718 C46.0342517,42.2839188 43.9217876,40.2649703 43.6102246,39.6456437 C43.5439262,39.5138553 42.4968082,38.1192164 42.4859278,38.1165129 C41.7008983,37.9214521 41.3682891,37.1189024 40.8290694,36.9402584 C40.6688446,36.8871758 40.3356365,36.8605683 40.2965077,36.7050075 C40.2310673,36.4448417 40.2062393,36.3491333 40.1189872,36.175693 L39.7639461,36.175693 C39.2207518,36.2239035 38.3635749,36.4107391 38.5213023,35.9404421 C39.1211096,36.2981321 39.887016,35.5899129 39.290558,35.2935022 C38.3580802,35.148927 38.4234362,35.430356 37.9887406,35.6463785 C36.6097923,35.9086288 36.9691382,35.3884566 36.320007,35.06587 L35.4095334,35.06587 C34.0325103,35.4037008 35.0549533,34.8563234 34.7063838,34.8178296 C34.7371581,34.7003146 35.1542114,34.2406775 35.0225417,34.2079608 C34.0976653,33.9781515 32.1458126,33.8534985 31.7755214,33.1174315 C31.5470558,32.6632863 32.2154293,31.8468047 31.7755214,31.529488 C31.7183961,31.4882821 30.7589816,31.117259 30.5728118,31.2097763 C30.5126896,31.5282308 30.6351633,31.5721287 30.6911588,31.7390908 C30.5804169,33.5134063 29.4347276,31.6307007 29.2310602,31.5294879 C29.2111221,31.0500245 29.6719835,30.7578018 30.0055312,30.6472972 C29.5339399,29.6935297 28.8969274,30.8929384 28.402631,30.6472971 C28.2476038,30.5702561 27.670852,28.6860888 27.5742018,28.6476645 C27.1073113,28.462047 26.2328983,30.0200352 26.0948639,30.2944207 C25.2355109,31.4820143 24.4021575,32.7413718 23.3728821,33.7643714 Z" id="Shape" stroke="none"></path>
                            <path d="M18.6050167,26.0921346 C19.219164,25.8353591 19.7356097,25.152706 20.260141,24.8005122 C20.7846723,24.4483183 20.6066674,23.4264706 20.6066674,23.4264706 C20.6066674,23.4264706 20.047472,24.2548924 19.4943536,24.6008536 C18.6934591,25.1017921 18.1974842,25.5288274 16.9664885,26.0251551 C15.7354927,26.5214829 15.1534189,26.4821555 14.6945376,26.6720574 C14.2356563,26.8619594 14.5170222,27.0453919 14.0294139,27.0907947 C13.5418057,27.1361975 13.0813617,26.8371276 12.8029671,26.8481878 C12.5245724,26.8592479 12.4419195,27.07585 11.7389587,27.0243181 C11.0359978,26.9727862 9.9021471,26.4626603 9.40680102,26.599456 C8.91145495,26.7362516 9.12225185,27.4464632 9.01982606,27.552709 C8.91740027,27.6589549 8.88118215,27.2740601 8.48782185,27.552709 C8.09446155,27.831358 7.6479489,27.96333 7.95866209,28.3044174 C8.26937528,28.6455048 9.44589895,28.741221 9.61094184,28.7856212 C9.77598474,28.8300215 9.63094556,28.7866936 9.96561131,28.8443314 C10.3002771,28.9019691 10.2946588,28.9471141 10.6336179,28.9617514 C10.972577,28.9763887 10.2441354,28.3774971 11.3251776,28.9030415 C12.4062199,29.4285858 12.7891764,30.0738491 13.1983328,30.1975677 C13.6074892,30.3212862 13.5682798,30.0495949 14.1824476,29.7670078 C14.7966154,29.4844206 15.1430691,29.5806172 15.462988,29.2327629 C15.782907,28.8849086 15.3486445,28.5908515 15.4629881,28.3746505 C15.5773317,28.1584495 15.7159102,28.3556819 16.0996173,28.0290239 C16.4833243,27.7023659 16.332424,27.5771405 16.7043313,27.3178686 C17.0762385,27.0585967 17.4599935,27.138722 17.7774547,26.9727861 C18.2267409,26.7379457 18.1756115,26.305379 18.6050167,26.0921346 Z" id="Shape" stroke="none"></path>
                            <path d="M8.26562135,21.7845311 C9.30591981,21.7845311 8.84611798,21.463613 9.48561742,21.3476354 C10.1251169,21.2316578 10.7099522,21.6571797 11.9177704,21.3476354 C13.1255887,21.038091 13.4698257,20.0858245 12.6937981,19.970881 C11.9177704,19.8559374 11.7797583,20.4346774 11.3317806,20.5829532 C10.7185058,20.6853976 10.3261978,20.4891299 9.91006204,20.4064881 C9.10848078,20.0901232 9.03467762,20.6298842 8.41545253,20.8547575 C8.13806742,20.9554907 7.88184538,20.7603211 7.4693179,21.0022713 C7.31138463,21.0949003 7.24075282,21.4620458 7.07472389,21.5444765 C6.65213834,21.7542834 6.33519674,21.6840486 6.17860197,22.1505294 C6.01760939,22.6301108 6.13647032,23.0965344 6.53309247,23.1880935 C6.71432278,23.22993 6.88862663,23.2330576 6.92985139,23.22993 C7.48129283,23.1880934 7.49593803,22.9484731 7.59976933,22.4652477 C7.70360064,21.9820224 7.79887935,21.7845311 8.26562135,21.7845311 Z" id="Shape" stroke="none"></path>
                            <path d="M9.35696673,22.7793962 C8.79276992,22.8686946 7.17563346,23.5441848 8.17188067,23.902424 C8.26361548,23.9354108 8.32771961,23.9695674 8.76180937,23.9695674 C9.19589912,23.9695674 10.8469738,23.4795911 10.8469738,22.5588235 C10.2679938,22.9389958 9.92116353,22.6900979 9.35696673,22.7793962 Z" id="Shape" stroke="none"></path>
                            <path d="M7.4221806,18.1913994 C8.16125078,18.29388 8.19476916,17.7644568 8.72042561,17.5038449 C8.83841804,17.4453462 9.06606341,17.2653826 9.3718536,17.4045478 C9.67764378,17.5437129 9.60551748,17.7983558 9.9254233,17.9438916 C10.352912,18.1383705 10.9274078,18.1113614 10.9274078,18.1113614 C10.9274078,18.1113614 10.0059967,18.7415655 9.4552036,18.5767605 C8.90441046,18.4119554 8.27311796,18.6579857 8.09963779,19.1740374 C7.58502206,18.9247931 7.23146767,19.5565614 6.71849201,19.3904335 C6.22207951,19.2296695 5.79520503,18.3987028 6.42312242,18.1913994 C6.77983773,18.0736318 7.4221806,18.1913994 7.4221806,18.1913994 Z" id="Shape" stroke="none"></path>
                            <path d="M22.9171806,13.9565595 L22.9171806,13.8965016 C23.5118378,13.8002451 23.4394112,14.2210188 23.7473589,14.3769645 C24.8252033,14.3473426 23.9369356,15.42161 23.5694635,14.6772537 C22.9505073,14.861706 22.3517385,14.2429012 22.9171806,13.9565595 L22.9171806,13.9565595 Z" id="Shape" stroke="none"></path>
                            <ellipse id="Oval-3" stroke="#000000" stroke-width="0.5" cx="22.2746539" cy="17.8063946" rx="0.456472125" ry="0.453453399"></ellipse>
                        </g>
                    </g>
                </g>
                <path d="M319.78,17.628 L317.96,19.308 L317.176,18.37 L319.934,16.088 L321.124,16.088 L321.124,26 L319.78,26 L319.78,17.628 Z M327.314,17.628 L325.494,19.308 L324.71,18.37 L327.468,16.088 L328.658,16.088 L328.658,26 L327.314,26 L327.314,17.628 Z M335.002,23.2 L331.558,23.2 L331.558,22.024 L335.002,22.024 L335.002,23.2 Z M335.886,24.572 L339.862,20.624 C340.002001,20.4933327 340.137333,20.3510008 340.268,20.197 C340.398667,20.0429992 340.515333,19.8820008 340.618,19.714 C340.720667,19.5459992 340.802333,19.3686676 340.863,19.182 C340.923667,18.9953324 340.954,18.7993344 340.954,18.594 C340.954,18.3513321 340.909667,18.132001 340.821,17.936 C340.732333,17.739999 340.611001,17.574334 340.457,17.439 C340.302999,17.303666 340.121001,17.198667 339.911,17.124 C339.700999,17.049333 339.479335,17.012 339.246,17.012 C338.760664,17.012 338.359335,17.147332 338.042,17.418 C337.724665,17.688668 337.524,18.0619976 337.44,18.538 L335.984,18.412 C336.049334,17.9733311 336.177666,17.5930016 336.369,17.271 C336.560334,16.9489984 336.798332,16.6806677 337.083,16.466 C337.367668,16.2513323 337.694331,16.0926672 338.063,15.99 C338.431669,15.8873328 338.830665,15.836 339.26,15.836 C339.689335,15.836 340.092998,15.8943328 340.471,16.011 C340.849002,16.1276673 341.180332,16.3003322 341.465,16.529 C341.749668,16.7576678 341.973666,17.0423316 342.137,17.383 C342.300334,17.7236684 342.382,18.1226644 342.382,18.58 C342.382,18.9066683 342.333,19.2123319 342.235,19.497 C342.137,19.7816681 342.008667,20.0499987 341.85,20.302 C341.691333,20.5540013 341.509334,20.7919989 341.304,21.016 C341.098666,21.2400011 340.884001,21.4593323 340.66,21.674 L337.398,24.824 L342.382,24.824 L342.382,26 L335.886,26 L335.886,24.572 Z M347.48,23.816 L343.252,23.816 L343.252,22.444 L347.2,16.088 L348.824,16.088 L348.824,22.64 L350.224,22.64 L350.224,23.816 L348.824,23.816 L348.824,26 L347.48,26 L347.48,23.816 Z M347.48,17.684 L347.452,17.684 L344.428,22.64 L347.48,22.64 L347.48,17.684 Z" id="11-24" fill="#DFDFDF" sketch:type="MSShapeGroup"></path>
            </g>
        </g>
    </g>
</svg>