<?xml version="1.0" encoding="UTF-8" standalone="no"?>
<svg width="422px" height="244px" viewBox="0 0 422 244" version="1.1" xmlns="http://www.w3.org/2000/svg" xmlns:xlink="http://www.w3.org/1999/xlink" xmlns:sketch="http://www.bohemiancoding.com/sketch/ns">
    <!-- Generator: Sketch 3.4.2 (15857) - http://www.bohemiancoding.com/sketch -->
    <title>img-web</title>
    <desc>Created with Sketch.</desc>
    <defs>
        <path id="path-1" d="M0.291153758,0.438871588 L0.291153758,37.7429566 L154.360017,100.30654 L154.360017,63.0024547 L0.291153758,0.438871588 L0.291153758,0.438871588 Z"></path>
        <path id="path-3" d="M44,17.9256801 L0.0487804878,0 L0.0487804878,24.3592804 L44,42.2358491 L44,17.9256801 L44,17.9256801 Z"></path>
        <path id="path-5" d="M152.807197,61.7436865 L1.8439738,0.53563135 C0.970512526,0.194775036 0.291153758,0.681712627 0.291153758,1.60689405 L0.291153758,7.15798258 L154.360017,69.6320755 L154.360017,64.0809869 C154.360017,63.1558055 153.680659,62.0845428 152.807197,61.7436865 L152.807197,61.7436865 Z"></path>
        <path id="path-7" d="M187.75671,182.262575 L187.75671,76.2357664 C187.75671,73.4520132 185.664097,70.3263956 183.085429,69.3008024 L14.0610388,0.732566621 C13.0879565,0.341864423 12.2121825,0.293026649 11.4823708,0.537215522 L2.04347277,4.15121085 L0,118.675793 L175.154809,189.490571 L186.004676,185.485869 C187.075066,184.997491 187.75671,183.874222 187.75671,182.262575 Z"></path>
        <path id="path-9" d="M5.05019441,0.489647468 C2.47653765,-0.538612214 0.388476493,0.881365442 0.388476493,3.67235601 L0.388476493,109.974821 C0.388476493,112.765812 2.47653765,115.900045 5.05019441,116.927815 L173.746112,185.67432 C176.319768,186.702579 178.408315,185.282112 178.408315,182.491611 L178.408315,76.189146 C178.408315,73.3981554 176.319768,70.2644116 173.746112,69.2361519 L5.05019441,0.489647468 L5.05019441,0.489647468 L5.05019441,0.489647468 Z"></path>
        <path id="path-11" d="M1.75241601,84.1867038 C0.876208007,83.8434849 0.194712891,82.8133377 0.194712891,81.8822338 L0.194712891,0.147093833 L154.74807,63.0542231 L154.74807,144.789363 C154.74807,145.720957 154.066575,146.21127 153.190367,145.868051 L1.75241601,84.1867038 L1.75241601,84.1867038 L1.75241601,84.1867038 Z"></path>
        <path id="path-13" d="M0.194712891,0.441330056 L0.194712891,6.42380415 L154.74807,69.3378554 L154.74807,63.3553813 L0.194712891,0.441330056 L0.194712891,0.441330056 Z"></path>
        <path id="path-15" d="M43.8639741,17.4405302 L1.95821313,0.441663005 C1.07701722,0.0982565082 0.391642626,0.589539049 0.391642626,1.5224846 L0.391642626,20.486482 L45.3815893,38.7617012 L45.3815893,19.7981951 C45.4305446,18.8647583 44.74517,17.784428 43.8639741,17.4405302 L43.8639741,17.4405302 Z"></path>
        <path id="path-17" d="M43.9129295,17.1948889 L2.00716846,0.196021734 C1.12597255,-0.147384762 0.441087508,0.343897779 0.441087508,1.27684332 L0.441087508,20.2408407 L45.4305446,38.5160599 L45.4305446,19.5525539 C45.4795,18.619117 44.7941254,17.5387867 43.9129295,17.1948889 L43.9129295,17.1948889 Z"></path>
        <path id="path-19" d="M0.194712891,0.243554815 L0.194712891,50.4158466 L154.74807,112.912012 L154.74807,62.7397202 L0.194712891,0.243554815 L0.194712891,0.243554815 Z"></path>
        <path id="path-21" d="M43.9077413,17.9815991 L0.434252386,0.291593499 L0.434252386,31.0061087 L43.9077413,48.6961143 L43.9077413,17.9815991 L43.9077413,17.9815991 Z"></path>
        <path id="path-23" d="M153.190367,61.5976052 L1.75241601,0.340856313 C0.876208007,-2.50355292e-14 0.194712891,0.486937591 0.194712891,1.41211901 L0.194712891,6.91451379 L154.74807,69.3886067 L154.74807,63.8375181 C154.74807,62.9610305 154.066575,61.9384615 153.190367,61.5976052 L153.190367,61.5976052 Z"></path>
        <path id="path-25" d="M2.1398374,0.958867925 C2.27642276,1.50679245 2.04878049,2.10037736 1.54796748,2.23735849 C1.09268293,2.37433962 0.546341463,2.0090566 0.409756098,1.46113208 C0.273170732,0.913207547 0.500813008,0.319622642 1.00162602,0.182641509 C1.45691057,0.0456603774 2.00325203,0.410943396 2.1398374,0.958867925 L2.1398374,0.958867925 Z"></path>
        <path id="path-27" d="M1.03986992,0.0812754717 C1.52429268,-0.0547924528 2.04331707,0.287660377 2.19902439,0.846086792 C2.35518699,1.40451321 2.08930081,1.96750566 1.60487805,2.10357358 C1.12045528,2.23964151 0.601430894,1.89718868 0.445723577,1.33876226 C0.289560976,0.779879245 0.555447154,0.217343396 1.03986992,0.0812754717 L1.03986992,0.0812754717 Z"></path>
        <path id="path-29" d="M2.2195122,1.48396226 C2.3902439,2.16886792 2.10569106,2.91084906 1.4796748,3.08207547 C0.910569106,3.25330189 0.227642276,2.79669811 0.0569105691,2.11179245 C-0.113821138,1.42688679 0.170731707,0.68490566 0.796747967,0.513679245 C1.36585366,0.34245283 1.99186992,0.741981132 2.2195122,1.48396226 L2.2195122,1.48396226 Z"></path>
        <path id="path-31" d="M44.2926829,17.9325142 L0.341463415,0.242994582 L0.341463415,30.9575098 L44.2926829,48.6961143 L44.2926829,17.9325142 L44.2926829,17.9325142 Z"></path>
        <path id="path-33" d="M0.292682927,23.8204481 L0.292682927,0.339599057 L37.5121951,15.3304717 L37.5121951,38.7623215 L0.292682927,23.8204481 L0.292682927,23.8204481 Z"></path>
        <path id="path-35" d="M0.0975609756,23.8204481 L0.0975609756,0.388113208 L37.3658537,15.3304717 L37.3658537,38.8113208 L0.0975609756,23.8204481 L0.0975609756,23.8204481 Z"></path>
        <path id="path-37" d="M1.88897561,0.496015889 C3.37001626,-0.168222443 5.2963252,1.09584906 6.19095935,3.31878848 C7.0855935,5.54220854 6.60982114,7.88290367 5.12878049,8.54762264 C3.64773984,9.21186097 1.72188618,7.94827011 0.827252033,5.72485005 C-0.0678373984,3.50142999 0.407934959,1.16073486 1.88897561,0.496015889 L1.88897561,0.496015889 Z"></path>
        <path id="path-39" d="M1.33557912e-08,3.94862791 L2.6391635,2.91462208 L1.33557912e-08,0.400613515 L1.33557912e-08,3.94862791 Z"></path>
    </defs>
    <g id="Page-1" stroke="none" stroke-width="1" fill="none" fill-rule="evenodd" sketch:type="MSPage">
        <g id="Artboard-1-Copy" sketch:type="MSArtboardGroup" transform="translate(-242.000000, -325.000000)">
            <g id="img-web" sketch:type="MSLayerGroup" transform="translate(243.000000, 326.000000)">
                <g id="Group-25" transform="translate(265.203252, 0.000000)" stroke-width="0.932721235" sketch:type="MSShapeGroup">
                    <path d="M0.291153758,67.9015179 L0.291153758,1.6178804 C0.291153758,0.686379331 0.970512526,0.196115664 1.8439738,0.539300231 L152.807197,62.165433 C153.680659,62.5086176 154.359532,63.5381713 154.359532,64.4696722 L154.359532,151.736605 C154.359532,152.667616 153.680659,153.157879 152.807197,152.815185 L0.291153758,90.2080245 L0.291153758,67.9015179 L0.291153758,67.9015179 L0.291153758,67.9015179 Z" id="Stroke-18" stroke="#4A545C"></path>
                    <path d="M37.3647323,18.4829403 L117.237913,51.0854741" id="Stroke-17" stroke="#FFFFFF"></path>
                    <path d="M0.291153758,13.4822508 L154.360017,76.3830793" id="Stroke-19" stroke="#4A545C"></path>
                    <path id="Stroke-20" stroke="#4A545C" d="M126.894513,57.0666909 L126.894513,64.9109095"></path>
                    <path id="Stroke-21" stroke="#4A545C" d="M111.463364,50.8403423 L111.463364,58.684561"></path>
                    <path d="M80.0667982,111.187878 L89.9179856,115.20853" id="Stroke-22" stroke="#C4C4C4"></path>
                    <path id="Stroke-23" stroke="#4A545C" d="M96.0322145,44.6139937 L96.0322145,52.409186"></path>
                    <path id="Stroke-24" stroke="#4A545C" d="M80.6010653,38.3876451 L80.6010653,46.1828374"></path>
                </g>
                <g id="Group-3" transform="translate(225.365854, 45.660377)">
                    <mask id="mask-2" sketch:name="Clip 2" fill="white">
                        <use xlink:href="#path-1"></use>
                    </mask>
                    <g id="Clip-2"></g>
                    <path d="M-2.13512756,-1.9993039 L156.786299,-1.9993039 L156.786299,102.744715 L-2.13512756,102.744715 L-2.13512756,-1.9993039 Z" id="Fill-1" fill="#EDEDED" sketch:type="MSShapeGroup" mask="url(#mask-2)"></path>
                </g>
                <g id="Group-6" transform="translate(254.959350, 74.198113)" stroke="#4A545C" stroke-width="1.39908185" sketch:type="MSShapeGroup">
                    <path d="M0.438270053,0.245641271 L94.3254547,38.5165512" id="Stroke-4"></path>
                    <path d="M16.1185986,11.6925245 L78.6451261,37.1900884" id="Stroke-5"></path>
                </g>
                <g id="Group-9" transform="translate(253.821138, 101.594340)">
                    <mask id="mask-4" sketch:name="Clip 8" fill="white">
                        <use xlink:href="#path-3"></use>
                    </mask>
                    <g id="Clip-8"></g>
                    <path d="M-2.3902439,-2.45557262 L46.4390244,-2.45557262 L46.4390244,44.6914217 L-2.3902439,44.6914217 L-2.3902439,-2.45557262 Z" id="Fill-7" fill="#EDEDED" sketch:type="MSShapeGroup" mask="url(#mask-4)"></path>
                </g>
                <g id="Group-13" transform="translate(305.040650, 127.849057)" stroke="#C4C4C4" stroke-width="0.932721235" sketch:type="MSShapeGroup">
                    <path d="M0.432914321,11.7519849 L37.4646654,27.2433057" id="Stroke-10"></path>
                    <path d="M0.0481550969,7.56783396 L37.4646654,23.2085887" id="Stroke-11"></path>
                    <path d="M25.0406504,10.410566 L1.01125704,0.348679245" id="Stroke-12"></path>
                </g>
                <g id="Group-16" transform="translate(225.365854, 33.014438)">
                    <mask id="mask-6" sketch:name="Clip 15" fill="white">
                        <use xlink:href="#path-5"></use>
                    </mask>
                    <g id="Clip-15"></g>
                    <path d="M-2.13512756,-2.00798454 L156.786299,-2.00798454 L156.786299,72.0667634 L-2.13512756,72.0667634 L-2.13512756,-2.00798454 Z" id="Fill-14" fill="#4A545C" sketch:type="MSShapeGroup" mask="url(#mask-6)"></path>
                </g>
                <g id="Group-28" transform="translate(113.821138, 52.509434)">
                    <mask id="mask-8" sketch:name="Clip 27" fill="white">
                        <use xlink:href="#path-7"></use>
                    </mask>
                    <g id="Clip-27"></g>
                </g>
                <g id="Group-32" transform="translate(113.821138, 55.933962)">
                    <mask id="mask-10" sketch:name="Clip 31" fill="white">
                        <use xlink:href="#path-9"></use>
                    </mask>
                    <g id="Clip-31"></g>
                    <path d="M-2.03950159,-2.29321495 L180.836293,-2.29321495 L180.836293,188.457143 L-2.03950159,188.457143 L-2.03950159,-2.29321495 Z" id="Fill-30" fill="#10181F" sketch:type="MSShapeGroup" mask="url(#mask-10)"></path>
                </g>
                <g id="Group-35" transform="translate(113.821138, 55.933962)" stroke="#4A545C" stroke-width="0.932721235" sketch:type="MSShapeGroup">
                    <path d="M5.05019441,0.48966343 C2.47653765,-0.538596056 0.388476493,0.8813816 0.388476493,3.67237217 L0.388476493,109.974821 C0.388476493,112.765812 2.47653765,115.900045 5.05019441,116.927815 L173.746112,185.67432 C176.319768,186.702579 178.408315,185.282112 178.408315,182.491611 L178.408315,76.189146 C178.408315,73.3981554 176.319768,70.2644116 173.746112,69.2361519 L5.05019441,0.48966343 L5.05019441,0.48966343 L5.05019441,0.48966343 Z" id="Stroke-33"></path>
                    <path d="M8.54648286,109.485174 L8.54648286,10.7722443 L170.249823,76.6298287 L170.249823,175.342758 L8.54648286,109.485174 L8.54648286,109.485174 Z" id="Stroke-34"></path>
                </g>
                <g id="Group-38" transform="translate(126.341463, 79.905660)">
                    <mask id="mask-12" sketch:name="Clip 37" fill="white">
                        <use xlink:href="#path-11"></use>
                    </mask>
                    <g id="Clip-37"></g>
                    <path d="M-2.23919824,-2.30447005 L157.181981,-2.30447005 L157.181981,148.429298 L-2.23919824,148.429298 L-2.23919824,-2.30447005 Z" id="Fill-36" fill="#FFFFFF" sketch:type="MSShapeGroup" mask="url(#mask-12)"></path>
                </g>
                <g id="Group-77" transform="translate(126.341463, 79.905660)">
                    <mask id="mask-14" sketch:name="Clip 76" fill="white">
                        <use xlink:href="#path-13"></use>
                    </mask>
                    <g id="Clip-76"></g>
                    <path d="M-2.23919824,-2.01050359 L157.181981,-2.01050359 L157.181981,71.7896891 L-2.23919824,71.7896891 L-2.23919824,-2.01050359 Z" id="Fill-75" fill="#EDEDED" sketch:type="MSShapeGroup" mask="url(#mask-14)"></path>
                </g>
                <g id="Group-80" transform="translate(154.796748, 154.103774)">
                    <mask id="mask-16" sketch:name="Clip 79" fill="white">
                        <use xlink:href="#path-15"></use>
                    </mask>
                    <g id="Clip-79"></g>
                    <path d="M-2.05612379,-0.982894531 L47.8318035,-0.982894531 L47.8318035,42.3596234 L-2.05612379,42.3596234 L-2.05612379,-0.982894531 Z" id="Fill-78" fill="#EDEDED" sketch:type="MSShapeGroup" mask="url(#mask-16)"></path>
                </g>
                <g id="Group-83" transform="translate(206.016260, 174.650943)">
                    <mask id="mask-18" sketch:name="Clip 82" fill="white">
                        <use xlink:href="#path-17"></use>
                    </mask>
                    <g id="Clip-82"></g>
                    <path d="M-2.00667891,-1.2285358 L47.8807588,-1.2285358 L47.8807588,42.1139821 L-2.00667891,42.1139821 L-2.00667891,-1.2285358 Z" id="Fill-81" fill="#EDEDED" sketch:type="MSShapeGroup" mask="url(#mask-18)"></path>
                </g>
                <g id="Group-86" transform="translate(126.341463, 86.754717)">
                    <mask id="mask-20" sketch:name="Clip 85" fill="white">
                        <use xlink:href="#path-19"></use>
                    </mask>
                    <g id="Clip-85"></g>
                    <path d="M-2.23919824,-2.19199333 L157.181981,-2.19199333 L157.181981,115.34756 L-2.23919824,115.34756 L-2.23919824,-2.19199333 Z" id="Fill-84" fill="#4AA5B8" sketch:type="MSShapeGroup" mask="url(#mask-20)"></path>
                </g>
                <g id="Group-89" transform="translate(154.796748, 108.443396)">
                    <mask id="mask-22" sketch:name="Clip 88" fill="white">
                        <use xlink:href="#path-21"></use>
                    </mask>
                    <g id="Clip-88"></g>
                    <path d="M-1.97826087,-2.13835233 L46.3202545,-2.13835233 L46.3202545,51.1260602 L-1.97826087,51.1260602 L-1.97826087,-2.13835233 Z" id="Fill-87" fill="#FFFFFF" sketch:type="MSShapeGroup" mask="url(#mask-22)"></path>
                </g>
                <g id="Group-99" transform="translate(154.796748, 108.443396)" stroke-width="0.932721235" sketch:type="MSShapeGroup">
                    <path id="Stroke-90" stroke="#C4C4C4" d="M0.195772358,0.393495935 L0.636260163,0.196747967"></path>
                    <path id="Stroke-91" stroke="#C4C4C4" d="M43.5104065,17.904065 L43.9508943,17.7073171"></path>
                    <path id="Stroke-92" stroke="#C4C4C4" d="M0.195772358,30.8894309 L0.636260163,30.7418699"></path>
                    <path d="M52.3201626,45.5963415 L76.644878,55.4829268" id="Stroke-93" stroke="#4A545C"></path>
                    <path d="M52.3201626,41.6121951 L97.7393496,60.0573171" id="Stroke-94" stroke="#4A545C"></path>
                    <path d="M52.3201626,37.6280488 L97.7393496,56.0731707" id="Stroke-95" stroke="#4A545C"></path>
                    <path d="M52.3201626,33.6439024 L97.7393496,52.0885325" id="Stroke-96" stroke="#4A545C"></path>
                    <path d="M52.3201626,29.6597561 L97.7393496,48.104878" id="Stroke-97" stroke="#4A545C"></path>
                    <path d="M97.7393496,44.1207317 L52.3201626,25.6756098" id="Stroke-98" stroke="#4A545C"></path>
                </g>
                <g id="Group-102" transform="translate(126.341463, 73.056604)">
                    <mask id="mask-24" sketch:name="Clip 101" fill="white">
                        <use xlink:href="#path-23"></use>
                    </mask>
                    <g id="Clip-101"></g>
                    <path d="M-2.23919824,-2.20275958 L157.181981,-2.20275958 L157.181981,71.8232946 L-2.23919824,71.8232946 L-2.23919824,-2.20275958 Z" id="Fill-100" fill="#4A545C" sketch:type="MSShapeGroup" mask="url(#mask-24)"></path>
                </g>
                <g id="Group-106" transform="translate(126.341463, 73.056604)" stroke="#FFFFFF" stroke-width="0.932721235" sketch:type="MSShapeGroup">
                    <path d="M37.4981996,18.212684 L117.91426,50.6830189" id="Stroke-103"></path>
                </g>
                <g id="Group-109" transform="translate(127.479675, 76.481132)">
                    <mask id="mask-26" sketch:name="Clip 108" fill="white">
                        <use xlink:href="#path-25"></use>
                    </mask>
                    <g id="Clip-108"></g>
                    <path d="M-1.90568455,-2.12928038 L4.45527805,-2.12928038 L4.45527805,4.54928038 L-1.90568455,4.54928038 L-1.90568455,-2.12928038 Z" id="Fill-107" fill="#9DA3A8" sketch:type="MSShapeGroup" mask="url(#mask-26)"></path>
                </g>
                <g id="Group-112" transform="translate(130.894309, 77.622642)">
                    <mask id="mask-28" sketch:name="Clip 111" fill="white">
                        <use xlink:href="#path-27"></use>
                    </mask>
                    <g id="Clip-111"></g>
                    <path d="M-1.87540813,-2.23155962 L4.5201561,-2.23155962 L4.5201561,4.41640868 L-1.87540813,4.41640868 L-1.87540813,-2.23155962 Z" id="Fill-110" fill="#9DA3A8" sketch:type="MSShapeGroup" mask="url(#mask-28)"></path>
                </g>
                <g id="Group-115" transform="translate(135.447154, 78.764151)">
                    <mask id="mask-30" sketch:name="Clip 114" fill="white">
                        <use xlink:href="#path-29"></use>
                    </mask>
                    <g id="Clip-114"></g>
                    <path d="M-2.83739024,-2.37941934 L5.11381301,-2.37941934 L5.11381301,5.97197783 L-2.83739024,5.97197783 L-2.83739024,-2.37941934 Z" id="Fill-113" fill="#9DA3A8" sketch:type="MSShapeGroup" mask="url(#mask-30)"></path>
                </g>
                <g id="Group-127" transform="translate(21.626016, 86.754717)" sketch:type="MSShapeGroup">
                    <path d="M104.585366,0.0487939327 L259.463415,62.6514095" id="Stroke-116" stroke="#4A545C" stroke-width="0.932721235"></path>
                    <path id="Stroke-117" stroke="#4A545C" stroke-width="0.932721235" d="M231.853659,43.475394 L231.853659,51.2336293"></path>
                    <path id="Stroke-118" stroke="#4A545C" stroke-width="0.932721235" d="M216.341463,37.2297706 L216.341463,45.0367999"></path>
                    <path id="Stroke-119" stroke="#4A545C" stroke-width="0.932721235" d="M200.829268,31.0329412 L200.829268,38.8399704"></path>
                    <path id="Stroke-120" stroke="#4A545C" stroke-width="0.932721235" d="M185.317073,24.8361117 L185.317073,32.594347"></path>
                    <path id="Stroke-121" stroke="#C4C4C4" stroke-width="0.932721235" d="M176.536585,71.043966 L176.97561,70.8487902"></path>
                    <path d="M3.31707317,75.9233592 L134.97561,22.3964151" id="Stroke-122" stroke="#C4C4C4" stroke-width="0.569105691" stroke-dasharray="1.138211358677257,1.138211358677257"></path>
                    <path d="M46.4878049,93.2939993 L178.146341,39.7670551" id="Stroke-123" stroke="#C4C4C4" stroke-width="0.569105691" stroke-dasharray="1.138211358677257,1.138211358677257"></path>
                    <path d="M3.31707317,106.175597 L134.97561,52.6974473" id="Stroke-124" stroke="#C4C4C4" stroke-width="0.569105691" stroke-dasharray="1.138211358677257,1.138211358677257"></path>
                    <path d="M46.4878049,124.131277 L178.146341,70.6048206" id="Stroke-125" stroke="#C4C4C4" stroke-width="0.569105691" stroke-dasharray="1.138211358677257,1.138211358677257"></path>
                    <path id="Stroke-126" stroke="#C4C4C4" stroke-width="0.932721235" d="M0.146341463,107.493034 L0.585365854,107.29737"></path>
                </g>
                <g id="Group-130" transform="translate(23.902439, 160.952830)">
                    <mask id="mask-32" sketch:name="Clip 129" fill="white">
                        <use xlink:href="#path-31"></use>
                    </mask>
                    <g id="Clip-129"></g>
                    <path d="M-2.09756098,-2.18695124 L46.7317073,-2.18695124 L46.7317073,51.1260602 L-2.09756098,51.1260602 L-2.09756098,-2.18695124 Z" id="Fill-128" fill="#808080" sketch:type="MSShapeGroup" mask="url(#mask-32)"></path>
                </g>
                <g id="Group-133" transform="translate(27.317073, 166.660377)">
                    <mask id="mask-34" sketch:name="Clip 132" fill="white">
                        <use xlink:href="#path-33"></use>
                    </mask>
                    <g id="Clip-132"></g>
                    <path d="M-2.14634146,-2.08610849 L39.9512195,-2.08610849 L39.9512195,41.188029 L-2.14634146,41.188029 L-2.14634146,-2.08610849 Z" id="Fill-131" fill="#EDEDED" sketch:type="MSShapeGroup" mask="url(#mask-34)"></path>
                </g>
                <g id="Group-141" transform="translate(0.000000, 165.518868)" stroke="#C4C4C4" sketch:type="MSShapeGroup">
                    <path d="M1.31061693,11.6789338 L28.5908656,0.145380918" id="Stroke-134" stroke-width="0.569105691" stroke-dasharray="0.9331875118342313,2.80002941868522"></path>
                    <path d="M1.31061693,35.0847771 L28.5908656,23.5517088" id="Stroke-135" stroke-width="0.569105691" stroke-dasharray="0.9331875118342313,2.80002941868522"></path>
                    <path d="M38.3476805,50.0594963 L65.6279292,38.5259434" id="Stroke-136" stroke-width="0.569105691" stroke-dasharray="0.9331875118342313,2.80002941868522"></path>
                    <path d="M38.3476805,26.6042235 L65.6279292,15.0711552" id="Stroke-137" stroke-width="0.569105691" stroke-dasharray="0.9331875118342313,2.80002941868522"></path>
                    <path id="Stroke-138" stroke-width="0.932721235" d="M0.0970827355,12.502759 L0.533955045,12.3084332"></path>
                    <path id="Stroke-139" stroke-width="0.932721235" d="M37.1826877,50.8833215 L37.61956,50.6894802"></path>
                    <path id="Stroke-140" stroke-width="0.932721235" d="M0.0970827355,35.9090869 L0.533955045,35.7637059"></path>
                </g>
                <g id="Group-144" transform="translate(0.000000, 178.075472)">
                    <mask id="mask-36" sketch:name="Clip 143" fill="white">
                        <use xlink:href="#path-35"></use>
                    </mask>
                    <g id="Clip-143"></g>
                    <path d="M-2.34146341,-2.03759434 L39.804878,-2.03759434 L39.804878,41.2370283 L-2.34146341,41.2370283 L-2.34146341,-2.03759434 Z" id="Fill-142" fill="#FFFFFF" sketch:type="MSShapeGroup" mask="url(#mask-36)"></path>
                </g>
                <path d="M0,201.744497 L0,178.075472 L37.5609756,193.168763 L37.5609756,216.886792 L0,201.744497 L0,201.744497 Z" id="Stroke-145" stroke="#4A545C" stroke-width="0.932721235" sketch:type="MSShapeGroup"></path>
                <g id="Group-148" transform="translate(13.658537, 192.915094)">
                    <mask id="mask-38" sketch:name="Clip 147" fill="white">
                        <use xlink:href="#path-37"></use>
                    </mask>
                    <g id="Clip-147"></g>
                    <path d="M-1.90113171,-2.08408381 L8.91901984,-2.08408381 L8.91901984,11.1277704 L-1.90113171,11.1277704 L-1.90113171,-2.08408381 Z" id="Fill-146" fill="#4AA5B8" sketch:type="MSShapeGroup" mask="url(#mask-38)"></path>
                </g>
                <g id="Group-151" transform="translate(15.934959, 195.198113)">
                    <mask id="mask-40" sketch:name="Clip 150" fill="white">
                        <use xlink:href="#path-39"></use>
                    </mask>
                    <g id="Clip-150"></g>
                    <path d="M-1.09268293,-1.36981132 L5.28130081,-1.36981132 L5.28130081,7.24858491 L-1.09268293,7.24858491 L-1.09268293,-1.36981132 Z" id="Fill-149" fill="#FFFFFF" sketch:type="MSShapeGroup" mask="url(#mask-40)"></path>
                </g>
            </g>
        </g>
    </g>
</svg>